<svg xmlns="http://www.w3.org/2000/svg" xmlns:xlink="http://www.w3.org/1999/xlink" width="500" zoomAndPan="magnify" viewBox="0 0 375 374.999991" height="500" preserveAspectRatio="xMidYMid meet" version="1.0"><defs><g/><clipPath id="c7c67eb70b"><path d="M 117 90.839844 L 171.75 90.839844 L 171.75 144 L 117 144 Z M 117 90.839844 " clip-rule="nonzero"/></clipPath><clipPath id="7f56c0123e"><path d="M 37.5 117 L 164 117 L 164 284.238281 L 37.5 284.238281 Z M 37.5 117 " clip-rule="nonzero"/></clipPath></defs><rect x="-37.5" width="450" fill="#ffffff" y="-37.499999" height="449.999989" fill-opacity="1"/><rect x="-37.5" width="450" fill="#ffffff" y="-37.499999" height="449.999989" fill-opacity="1"/><g clip-path="url(#c7c67eb70b)"><path fill="#f68712" d="M 171.351562 104.839844 C 171.421875 105.207031 171.355469 105.589844 171.183594 105.980469 C 170.34375 107.878906 166.867188 109.949219 163.179688 111.699219 C 162.507812 112.015625 161.832031 112.320312 161.160156 112.613281 C 156.96875 114.445312 153.078125 115.734375 153.078125 115.734375 L 152.535156 120.441406 L 154.46875 119.789062 C 155.265625 119.523438 156.132812 119.953125 156.402344 120.75 C 156.667969 121.550781 156.238281 122.417969 155.441406 122.683594 L 152.152344 123.789062 L 149.972656 142.773438 L 147.839844 143.347656 L 144.242188 130.257812 L 143.265625 126.710938 L 142.816406 126.859375 C 142.332031 127.023438 141.796875 126.9375 141.390625 126.625 C 140.402344 125.875 140.65625 124.328125 141.832031 123.933594 L 142.449219 123.726562 L 141.449219 120.078125 L 139.84375 120.664062 L 131.039062 123.878906 L 127.371094 132.511719 L 126.859375 133.117188 L 126.046875 134.085938 L 125.882812 133.132812 L 123.941406 122.011719 L 117.050781 113.085938 L 119.382812 113.007812 L 128.34375 117.0625 L 136.453125 113.835938 L 137.269531 113.511719 L 138.734375 112.929688 L 136.277344 108.878906 L 135.097656 109.277344 C 134.609375 109.4375 134.078125 109.351562 133.671875 109.039062 C 132.683594 108.289062 132.9375 106.746094 134.109375 106.347656 L 134.632812 106.171875 L 125.824219 91.660156 L 127.671875 90.800781 L 143.792969 103.1875 C 143.894531 103.125 144 103.066406 144.121094 103.027344 L 147.722656 101.816406 C 148.519531 101.550781 149.386719 101.980469 149.652344 102.777344 C 149.921875 103.578125 149.492188 104.441406 148.691406 104.710938 L 146.664062 105.394531 L 150.410156 108.273438 C 150.410156 108.273438 153.933594 106.871094 158.097656 105.578125 C 158.601562 105.417969 159.121094 105.261719 159.640625 105.109375 C 165.039062 103.53125 170.894531 102.425781 171.351562 104.839844 " fill-opacity="1" fill-rule="nonzero"/></g><g clip-path="url(#7f56c0123e)"><path fill="#f68712" d="M 118.066406 130.628906 C 118.066406 130.628906 117.078125 131.007812 115.226562 131.710938 C 113.339844 132.417969 110.742188 133.441406 107.394531 134.792969 C 104.054688 136.179688 99.992188 137.859375 95.472656 140.003906 C 90.949219 142.140625 85.898438 144.644531 80.664062 147.75 C 75.441406 150.859375 69.96875 154.507812 64.84375 159 C 59.75 163.507812 54.972656 168.816406 51.507812 175.183594 C 48.09375 181.414062 46.21875 188.84375 46.335938 196.46875 C 46.410156 200.285156 46.953125 204.152344 47.914062 207.96875 C 48.902344 211.773438 50.316406 215.519531 52.066406 219.128906 C 55.570312 226.355469 60.492188 232.960938 66.125 238.699219 C 67.535156 240.136719 69 241.511719 70.496094 242.84375 L 70.773438 243.09375 C 70.6875 243.027344 70.792969 243.113281 70.792969 243.113281 L 70.867188 243.175781 L 71.015625 243.296875 L 71.609375 243.789062 L 72.796875 244.769531 C 73.585938 245.425781 74.375 246.078125 75.160156 246.726562 C 76.742188 247.914062 78.316406 249.09375 79.878906 250.261719 C 81.515625 251.371094 83.140625 252.472656 84.753906 253.566406 C 91.3125 257.796875 98.027344 261.351562 104.550781 264.402344 C 105.367188 264.785156 106.175781 265.167969 106.980469 265.542969 C 107.796875 265.898438 108.605469 266.25 109.410156 266.601562 C 111.019531 267.289062 112.589844 268.015625 114.175781 268.625 C 115.75 269.261719 117.300781 269.882812 118.824219 270.496094 C 120.363281 271.066406 121.871094 271.628906 123.351562 272.179688 C 124.828125 272.746094 126.292969 273.238281 127.71875 273.734375 C 129.152344 274.222656 130.539062 274.726562 131.910156 275.167969 C 134.65625 276.042969 137.246094 276.925781 139.714844 277.640625 C 142.175781 278.382812 144.480469 279.085938 146.625 279.675781 C 148.769531 280.277344 150.734375 280.847656 152.523438 281.308594 C 154.3125 281.78125 155.90625 282.207031 157.292969 282.574219 C 158.6875 282.921875 159.871094 283.21875 160.832031 283.460938 C 162.753906 283.941406 163.777344 284.199219 163.777344 284.199219 C 163.777344 284.199219 162.742188 283.996094 160.796875 283.613281 C 159.824219 283.421875 158.625 283.183594 157.214844 282.910156 C 155.808594 282.609375 154.195312 282.269531 152.382812 281.886719 C 150.570312 281.519531 148.578125 281.050781 146.398438 280.558594 C 144.21875 280.078125 141.878906 279.492188 139.375 278.875 C 136.863281 278.285156 134.21875 277.53125 131.417969 276.796875 C 130.019531 276.421875 128.597656 275.988281 127.132812 275.574219 C 125.671875 275.148438 124.171875 274.726562 122.660156 274.234375 C 121.140625 273.757812 119.589844 273.265625 118.011719 272.769531 C 116.445312 272.230469 114.847656 271.683594 113.222656 271.125 C 111.589844 270.589844 109.964844 269.941406 108.300781 269.324219 C 107.46875 269.011719 106.628906 268.699219 105.785156 268.382812 C 104.949219 268.039062 104.109375 267.695312 103.261719 267.351562 C 96.484375 264.59375 89.445312 261.328125 82.46875 257.3125 C 80.742188 256.269531 79.003906 255.21875 77.253906 254.160156 C 75.535156 253.003906 73.804688 251.835938 72.0625 250.664062 C 71.246094 250.054688 70.425781 249.445312 69.601562 248.832031 L 68.367188 247.914062 L 67.75 247.453125 L 67.386719 247.175781 L 67.078125 246.925781 C 65.421875 245.597656 63.789062 244.21875 62.210938 242.765625 C 55.894531 236.953125 50.207031 230.121094 45.914062 222.335938 C 43.773438 218.445312 41.96875 214.335938 40.621094 210.054688 C 39.296875 205.769531 38.429688 201.320312 38.113281 196.824219 C 37.507812 187.828125 39.257812 178.75 43.0625 170.871094 C 43.550781 169.867188 44.066406 168.78125 44.53125 167.988281 L 45.242188 166.699219 L 45.328125 166.539062 L 45.375 166.460938 C 45.328125 166.53125 45.484375 166.269531 45.488281 166.265625 L 45.703125 165.933594 L 46.128906 165.265625 C 46.703125 164.378906 47.273438 163.496094 47.839844 162.621094 C 48.414062 161.742188 49.070312 160.953125 49.679688 160.121094 C 52.125 156.800781 54.878906 153.914062 57.609375 151.179688 C 63.148438 145.796875 68.953125 141.5 74.433594 137.835938 C 79.929688 134.1875 85.160156 131.25 89.828125 128.746094 C 94.496094 126.234375 98.640625 124.265625 102.050781 122.636719 C 105.484375 121.039062 108.234375 119.792969 110.019531 119.019531 C 111.832031 118.21875 112.800781 117.792969 112.800781 117.792969 L 118.066406 130.628906 " fill-opacity="1" fill-rule="nonzero"/></g><g fill="#022179" fill-opacity="1"><g transform="translate(93.368604, 206.614863)"><g><path d="M 27.34375 -38.171875 C 28.132812 -38.171875 28.726562 -38.144531 29.125 -38.09375 C 29.53125 -38.039062 29.984375 -37.875 30.484375 -37.59375 C 30.992188 -37.320312 31.351562 -36.851562 31.5625 -36.1875 C 31.769531 -35.53125 31.875 -34.644531 31.875 -33.53125 C 31.875 -32.425781 31.769531 -31.539062 31.5625 -30.875 C 31.351562 -30.21875 30.988281 -29.757812 30.46875 -29.5 C 29.945312 -29.238281 29.484375 -29.082031 29.078125 -29.03125 C 28.679688 -28.976562 28.066406 -28.953125 27.234375 -28.953125 L 11.296875 -28.953125 L 11.296875 -23.703125 L 21.5625 -23.703125 C 22.394531 -23.703125 23.007812 -23.675781 23.40625 -23.625 C 23.8125 -23.570312 24.273438 -23.40625 24.796875 -23.125 C 25.691406 -22.601562 26.140625 -21.234375 26.140625 -19.015625 C 26.140625 -16.578125 25.484375 -15.132812 24.171875 -14.6875 C 23.609375 -14.507812 22.722656 -14.421875 21.515625 -14.421875 L 11.296875 -14.421875 L 11.296875 -4.578125 C 11.296875 -3.742188 11.269531 -3.132812 11.21875 -2.75 C 11.164062 -2.375 11.003906 -1.925781 10.734375 -1.40625 C 10.242188 -0.46875 8.890625 0 6.671875 0 C 4.234375 0 2.804688 -0.660156 2.390625 -1.984375 C 2.179688 -2.535156 2.078125 -3.421875 2.078125 -4.640625 L 2.078125 -33.59375 C 2.078125 -35.363281 2.40625 -36.566406 3.0625 -37.203125 C 3.726562 -37.847656 4.984375 -38.171875 6.828125 -38.171875 Z M 27.34375 -38.171875 "/></g></g></g><g fill="#022179" fill-opacity="1"><g transform="translate(126.53485, 206.614863)"><g><path d="M 24.109375 -35.46875 L 38.171875 -6.40625 C 38.765625 -5.226562 39.0625 -4.34375 39.0625 -3.75 C 39.0625 -2.5 38.050781 -1.367188 36.03125 -0.359375 C 34.851562 0.222656 33.925781 0.515625 33.25 0.515625 C 32.570312 0.515625 32.015625 0.359375 31.578125 0.046875 C 31.148438 -0.265625 30.835938 -0.59375 30.640625 -0.9375 C 30.453125 -1.28125 30.1875 -1.800781 29.84375 -2.5 L 27.125 -8.125 L 12.703125 -8.125 L 10 -2.5 C 9.65625 -1.800781 9.382812 -1.296875 9.1875 -0.984375 C 9 -0.671875 8.6875 -0.347656 8.25 -0.015625 C 7.820312 0.304688 7.269531 0.46875 6.59375 0.46875 C 5.914062 0.46875 4.984375 0.171875 3.796875 -0.421875 C 1.785156 -1.390625 0.78125 -2.5 0.78125 -3.75 C 0.78125 -4.34375 1.078125 -5.226562 1.671875 -6.40625 L 15.734375 -35.515625 C 16.109375 -36.316406 16.6875 -36.957031 17.46875 -37.4375 C 18.25 -37.925781 19.078125 -38.171875 19.953125 -38.171875 C 21.828125 -38.171875 23.210938 -37.269531 24.109375 -35.46875 Z M 19.890625 -22.96875 L 16.453125 -15.828125 L 23.390625 -15.828125 Z M 19.890625 -22.96875 "/></g></g></g><g fill="#022179" fill-opacity="1"><g transform="translate(166.365585, 206.614863)"><g><path d="M 36.921875 -37.59375 C 38.972656 -36.59375 40 -35.484375 40 -34.265625 C 40 -33.710938 39.738281 -32.878906 39.21875 -31.765625 L 24.84375 -2.609375 C 24.457031 -1.835938 23.875 -1.21875 23.09375 -0.75 C 22.3125 -0.28125 21.503906 -0.046875 20.671875 -0.046875 L 20.15625 -0.046875 C 19.289062 -0.046875 18.46875 -0.28125 17.6875 -0.75 C 16.90625 -1.21875 16.320312 -1.835938 15.9375 -2.609375 L 1.5625 -31.765625 C 1.039062 -32.878906 0.78125 -33.710938 0.78125 -34.265625 C 0.78125 -35.484375 1.804688 -36.59375 3.859375 -37.59375 C 5.003906 -38.1875 5.878906 -38.484375 6.484375 -38.484375 C 7.085938 -38.484375 7.546875 -38.410156 7.859375 -38.265625 C 8.171875 -38.128906 8.46875 -37.890625 8.75 -37.546875 C 9.0625 -37.128906 9.347656 -36.664062 9.609375 -36.15625 C 9.867188 -35.65625 10.535156 -34.21875 11.609375 -31.84375 C 12.691406 -29.46875 13.847656 -26.941406 15.078125 -24.265625 C 16.304688 -21.597656 17.46875 -19.070312 18.5625 -16.6875 C 19.65625 -14.3125 20.273438 -12.984375 20.421875 -12.703125 L 30.828125 -35.515625 C 31.109375 -36.171875 31.351562 -36.691406 31.5625 -37.078125 C 32.1875 -38.015625 32.945312 -38.484375 33.84375 -38.484375 C 34.75 -38.484375 35.773438 -38.1875 36.921875 -37.59375 Z M 36.921875 -37.59375 "/></g></g></g><g fill="#022179" fill-opacity="1"><g transform="translate(207.133512, 206.614863)"><g><path d="M 20 -38.640625 C 25.132812 -38.640625 29.59375 -36.78125 33.375 -33.0625 C 37.164062 -29.351562 39.0625 -24.742188 39.0625 -19.234375 C 39.0625 -13.734375 37.253906 -9.046875 33.640625 -5.171875 C 30.023438 -1.304688 25.578125 0.625 20.296875 0.625 C 15.023438 0.625 10.539062 -1.28125 6.84375 -5.09375 C 3.144531 -8.914062 1.296875 -13.46875 1.296875 -18.75 C 1.296875 -21.632812 1.816406 -24.332031 2.859375 -26.84375 C 3.898438 -29.363281 5.289062 -31.472656 7.03125 -33.171875 C 8.769531 -34.867188 10.765625 -36.203125 13.015625 -37.171875 C 15.273438 -38.148438 17.601562 -38.640625 20 -38.640625 Z M 10.515625 -19 C 10.515625 -15.914062 11.515625 -13.410156 13.515625 -11.484375 C 15.515625 -9.554688 17.742188 -8.59375 20.203125 -8.59375 C 22.671875 -8.59375 24.894531 -9.53125 26.875 -11.40625 C 28.851562 -13.28125 29.84375 -15.796875 29.84375 -18.953125 C 29.84375 -22.117188 28.84375 -24.65625 26.84375 -26.5625 C 24.851562 -28.46875 22.625 -29.421875 20.15625 -29.421875 C 17.6875 -29.421875 15.460938 -28.457031 13.484375 -26.53125 C 11.503906 -24.601562 10.515625 -22.09375 10.515625 -19 Z M 10.515625 -19 "/></g></g></g><g fill="#022179" fill-opacity="1"><g transform="translate(247.484908, 206.614863)"><g><path d="M 27.015625 -36.765625 C 27.367188 -37.316406 27.875 -37.695312 28.53125 -37.90625 C 29.195312 -38.113281 30.023438 -38.21875 31.015625 -38.21875 C 32.003906 -38.21875 32.789062 -38.128906 33.375 -37.953125 C 33.96875 -37.785156 34.421875 -37.578125 34.734375 -37.328125 C 35.046875 -37.085938 35.269531 -36.726562 35.40625 -36.25 C 35.613281 -35.65625 35.71875 -34.75 35.71875 -33.53125 L 35.71875 -17.8125 C 35.71875 -13.226562 34.296875 -9.0625 31.453125 -5.3125 C 30.066406 -3.539062 28.28125 -2.109375 26.09375 -1.015625 C 23.90625 0.078125 21.484375 0.625 18.828125 0.625 C 16.171875 0.625 13.753906 0.0703125 11.578125 -1.03125 C 9.410156 -2.144531 7.648438 -3.609375 6.296875 -5.421875 C 3.484375 -9.097656 2.078125 -13.265625 2.078125 -17.921875 L 2.078125 -33.59375 C 2.078125 -34.425781 2.101562 -35.039062 2.15625 -35.4375 C 2.207031 -35.832031 2.375 -36.289062 2.65625 -36.8125 C 2.9375 -37.332031 3.40625 -37.695312 4.0625 -37.90625 C 4.71875 -38.113281 5.601562 -38.21875 6.71875 -38.21875 C 7.832031 -38.21875 8.71875 -38.113281 9.375 -37.90625 C 10.03125 -37.695312 10.484375 -37.332031 10.734375 -36.8125 C 11.148438 -36.019531 11.359375 -34.925781 11.359375 -33.53125 L 11.359375 -17.921875 C 11.359375 -15.796875 11.878906 -13.78125 12.921875 -11.875 C 13.441406 -10.90625 14.222656 -10.125 15.265625 -9.53125 C 16.304688 -8.9375 17.535156 -8.640625 18.953125 -8.640625 C 21.492188 -8.640625 23.382812 -9.578125 24.625 -11.453125 C 25.875 -13.328125 26.5 -15.5 26.5 -17.96875 L 26.5 -33.90625 C 26.5 -35.257812 26.671875 -36.210938 27.015625 -36.765625 Z M 27.015625 -36.765625 "/></g></g></g><g fill="#022179" fill-opacity="1"><g transform="translate(285.285062, 206.614863)"><g><path d="M 31.296875 -6.453125 C 31.816406 -5.203125 32.078125 -4.300781 32.078125 -3.75 C 32.078125 -2.425781 31 -1.316406 28.84375 -0.421875 C 27.738281 0.0664062 26.847656 0.3125 26.171875 0.3125 C 25.492188 0.3125 24.9375 0.148438 24.5 -0.171875 C 24.070312 -0.503906 23.753906 -0.847656 23.546875 -1.203125 C 23.191406 -1.859375 21.835938 -5 19.484375 -10.625 L 17.859375 -10.515625 L 11.296875 -10.515625 L 11.296875 -4.640625 C 11.296875 -3.835938 11.269531 -3.234375 11.21875 -2.828125 C 11.164062 -2.429688 11.003906 -1.972656 10.734375 -1.453125 C 10.242188 -0.515625 8.890625 -0.046875 6.671875 -0.046875 C 4.234375 -0.046875 2.804688 -0.691406 2.390625 -1.984375 C 2.179688 -2.566406 2.078125 -3.46875 2.078125 -4.6875 L 2.078125 -33.59375 C 2.078125 -34.382812 2.101562 -34.976562 2.15625 -35.375 C 2.207031 -35.78125 2.375 -36.242188 2.65625 -36.765625 C 3.144531 -37.703125 4.5 -38.171875 6.71875 -38.171875 L 17.96875 -38.171875 C 21.019531 -38.171875 23.988281 -37.0625 26.875 -34.84375 C 28.257812 -33.757812 29.398438 -32.296875 30.296875 -30.453125 C 31.203125 -28.617188 31.65625 -26.578125 31.65625 -24.328125 C 31.65625 -20.398438 30.351562 -17.171875 27.75 -14.640625 C 28.519531 -12.796875 29.703125 -10.066406 31.296875 -6.453125 Z M 11.296875 -19.734375 L 17.96875 -19.734375 C 18.976562 -19.734375 19.984375 -20.113281 20.984375 -20.875 C 21.992188 -21.644531 22.5 -22.789062 22.5 -24.3125 C 22.5 -25.84375 21.992188 -27 20.984375 -27.78125 C 19.984375 -28.5625 18.941406 -28.953125 17.859375 -28.953125 L 11.296875 -28.953125 Z M 11.296875 -19.734375 "/></g></g></g><g fill="#d87309" fill-opacity="1"><g transform="translate(128.509054, 236.893535)"><g><path d="M 5.078125 -12.6875 L 0.09375 -12.6875 L 0.09375 -15.0625 L 12.859375 -15.0625 L 12.859375 -12.6875 L 7.875 -12.6875 L 7.875 0 L 5.078125 0 Z M 5.078125 -12.6875 "/></g></g></g><g fill="#d87309" fill-opacity="1"><g transform="translate(158.675572, 236.893535)"><g><path d="M 11.875 0 L 8.796875 -4.40625 C 8.671875 -4.394531 8.476562 -4.390625 8.21875 -4.390625 L 4.8125 -4.390625 L 4.8125 0 L 2.015625 0 L 2.015625 -15.0625 L 8.21875 -15.0625 C 9.519531 -15.0625 10.65625 -14.84375 11.625 -14.40625 C 12.59375 -13.976562 13.332031 -13.363281 13.84375 -12.5625 C 14.363281 -11.757812 14.625 -10.804688 14.625 -9.703125 C 14.625 -8.566406 14.347656 -7.585938 13.796875 -6.765625 C 13.242188 -5.953125 12.453125 -5.347656 11.421875 -4.953125 L 14.890625 0 Z M 11.8125 -9.703125 C 11.8125 -10.660156 11.492188 -11.394531 10.859375 -11.90625 C 10.234375 -12.425781 9.3125 -12.6875 8.09375 -12.6875 L 4.8125 -12.6875 L 4.8125 -6.6875 L 8.09375 -6.6875 C 9.3125 -6.6875 10.234375 -6.945312 10.859375 -7.46875 C 11.492188 -8 11.8125 -8.742188 11.8125 -9.703125 Z M 11.8125 -9.703125 "/></g></g></g><g fill="#d87309" fill-opacity="1"><g transform="translate(191.617602, 236.893535)"><g><path d="M 2.015625 -15.0625 L 4.8125 -15.0625 L 4.8125 0 L 2.015625 0 Z M 2.015625 -15.0625 "/></g></g></g><g fill="#d87309" fill-opacity="1"><g transform="translate(215.695197, 236.893535)"><g><path d="M 8.21875 -15.0625 C 9.519531 -15.0625 10.65625 -14.84375 11.625 -14.40625 C 12.59375 -13.976562 13.332031 -13.363281 13.84375 -12.5625 C 14.363281 -11.757812 14.625 -10.804688 14.625 -9.703125 C 14.625 -8.609375 14.363281 -7.65625 13.84375 -6.84375 C 13.332031 -6.039062 12.59375 -5.421875 11.625 -4.984375 C 10.65625 -4.554688 9.519531 -4.34375 8.21875 -4.34375 L 4.8125 -4.34375 L 4.8125 0 L 2.015625 0 L 2.015625 -15.0625 Z M 8.09375 -6.71875 C 9.3125 -6.71875 10.234375 -6.972656 10.859375 -7.484375 C 11.492188 -8.003906 11.8125 -8.742188 11.8125 -9.703125 C 11.8125 -10.660156 11.492188 -11.394531 10.859375 -11.90625 C 10.234375 -12.425781 9.3125 -12.6875 8.09375 -12.6875 L 4.8125 -12.6875 L 4.8125 -6.71875 Z M 8.09375 -6.71875 "/></g></g></g></svg>